<?xml version="1.0" standalone="no"?>
<!DOCTYPE svg PUBLIC "-//W3C//DTD SVG 20010904//EN"
 "http://www.w3.org/TR/2001/REC-SVG-20010904/DTD/svg10.dtd">
<svg version="1.0" xmlns="http://www.w3.org/2000/svg"
 width="900.000000pt" height="900.000000pt" viewBox="0 0 900.000000 900.000000"
 preserveAspectRatio="xMidYMid meet">
<metadata>
Created by potrace 1.10, written by Peter Selinger 2001-2011
</metadata>
<g transform="translate(0.000000,900.000000) scale(0.100000,-0.100000)"
fill="#4f46e5" stroke="none">
<path d="M2812 8243 c-52 -76 -195 -372 -211 -440 -5 -21 -18 -72 -29 -113
-39 -142 -54 -280 -49 -433 6 -174 17 -245 60 -379 66 -202 178 -370 339 -506
118 -99 226 -168 383 -245 56 -27 256 -99 325 -116 235 -58 404 -81 655 -87
306 -8 595 15 880 71 44 9 106 20 137 25 163 29 604 164 813 250 203 84 228
95 232 107 7 17 -37 120 -134 318 -19 39 -59 129 -90 200 -80 188 -111 245
-130 245 -9 0 -59 -21 -111 -46 -345 -168 -826 -318 -1212 -379 -302 -48 -661
-63 -850 -36 -105 15 -319 64 -347 80 -12 6 -29 11 -38 11 -9 0 -43 14 -77 30
-33 17 -65 30 -72 30 -15 0 -137 86 -206 146 -144 125 -248 337 -280 571 -25
183 4 471 65 642 8 24 13 53 9 63 -8 27 -40 22 -62 -9z"/>
<path d="M2249 8118 c-102 -101 -282 -317 -356 -428 -134 -201 -211 -363 -298
-621 -48 -143 -66 -216 -92 -374 -25 -155 -25 -547 1 -690 49 -274 138 -560
223 -720 8 -16 42 -81 74 -143 73 -142 172 -291 264 -397 28 -33 60 -71 71
-84 10 -13 80 -85 154 -158 178 -177 360 -316 613 -467 18 -10 98 -52 179 -92
186 -93 360 -160 608 -234 200 -60 193 -58 405 -104 157 -34 413 -62 790 -87
226 -14 623 3 950 42 257 31 320 40 415 59 58 11 137 29 175 39 39 10 102 24
140 31 137 24 412 91 535 130 69 22 174 55 235 73 85 25 111 37 114 52 2 10
-15 57 -37 104 -42 88 -124 270 -262 581 -43 96 -103 229 -135 295 -31 66 -68
147 -81 180 -24 57 -82 183 -114 250 -16 33 -49 43 -84 27 -12 -6 -55 -26 -96
-46 -41 -20 -83 -36 -92 -36 -10 0 -35 -6 -55 -14 -144 -53 -499 -156 -588
-171 -22 -4 -87 -18 -145 -31 -310 -72 -487 -100 -882 -135 -151 -14 -665 -7
-783 10 -341 49 -608 114 -847 204 -68 26 -332 156 -418 205 -171 98 -492 392
-576 527 -11 17 -35 53 -56 80 -47 65 -126 223 -177 355 -77 199 -105 362
-106 600 0 174 7 232 56 442 56 241 170 471 348 703 63 81 73 108 45 119 -27
10 -29 8 -115 -76z"/>
<path d="M1620 7983 c-107 -97 -302 -294 -400 -402 -36 -40 -77 -86 -92 -101
-31 -34 -130 -162 -208 -269 -174 -238 -330 -515 -427 -756 -81 -201 -172
-524 -198 -700 -8 -55 -19 -129 -25 -165 -29 -194 -22 -624 15 -880 39 -268
131 -627 206 -804 16 -37 29 -73 29 -80 0 -6 20 -53 45 -104 25 -51 45 -96 45
-101 0 -4 35 -77 78 -162 218 -429 504 -796 927 -1189 262 -243 595 -480 950
-675 176 -97 216 -119 305 -161 52 -25 147 -68 210 -96 63 -28 129 -56 145
-64 17 -8 44 -18 60 -23 17 -5 55 -19 85 -31 325 -125 629 -218 930 -284 118
-26 242 -54 275 -62 87 -20 398 -70 555 -88 496 -59 1037 -79 1460 -56 96 5
218 12 270 15 52 3 133 10 180 15 47 5 150 17 230 26 80 9 235 31 345 50 110
18 229 38 265 44 108 19 237 46 550 120 249 58 304 72 314 81 10 9 -19 84 -91
232 -29 59 -53 110 -53 113 0 3 -13 32 -30 66 -16 33 -30 64 -30 68 0 4 -31
72 -69 151 -38 79 -89 191 -114 249 -24 58 -77 175 -117 260 -40 85 -78 169
-85 185 -91 212 -136 305 -159 324 -13 11 -26 9 -78 -8 -35 -11 -81 -25 -103
-30 -22 -5 -112 -27 -200 -49 -176 -44 -231 -56 -445 -101 -608 -126 -1068
-174 -1655 -173 -364 0 -734 27 -1010 72 -522 86 -970 213 -1376 390 -130 57
-462 225 -529 267 -199 128 -297 198 -578 414 -26 20 -104 92 -174 160 -200
196 -357 383 -483 579 -37 58 -78 121 -91 140 -18 28 -94 182 -184 375 -9 19
-23 58 -74 205 -20 57 -78 287 -106 420 -19 90 -40 359 -40 516 0 195 20 391
59 579 50 244 72 313 193 600 119 284 327 597 559 839 49 52 89 101 89 109 0
15 -29 37 -47 37 -4 -1 -51 -39 -103 -87z"/>
</g>
</svg>
